# xmcd
#
# Track frame offsets:
#	150
#	11682
#	23482
#	34642
#	47850
#	57760
#	68772
#	82535
#	96275
#	109862
#	120215
#	130862
#	143085
#	154925
#	168532
#	179942
#	188565
#	201050
#
# Disc length: 2855
#
# Revision: 1
# Processed by: cddbd v1.5.1PL0 Copyright (c) Steve Scherf et al.
# Submitted via: audiograbber 1.81.03
# Normalized: r0:DSETVAR1
#
DISCID=e60b2512
DTITLE=Various Artist - History Of Country Music - The Fifties, Vol. 2 [Disc 2]
DYEAR=1993
DGENRE=Country
TTITLE0=Marty Robbins - The Story Of My Life(1957)
TTITLE1=Goldie Hill - I Let The Stars Get In My Eyes [answer song](1953)
TTITLE2=Hank Snow - Let Me Go Lover(1954)
TTITLE3=Jim Reeves - Four Walls(1957)
TTITLE4=Eddy Arnold - I Wanna Play House With You(1951)
TTITLE5=Carl Smith - [When You Feel Like You're In Love] Don't Just Stand There(1952)
TTITLE6=Lefty Prizzell - I Want To Be With You Always(1951)
TTITLE7=Red Foley - Birmingham Bounce(1950)
TTITLE8=Davis Sisters - I Forgot More Than You'll Ever Know(1953)
TTITLE9=Johnny Cash - There You Go(1956)
TTITLE10=Rusty and Doug - Hey Sheriff(1958)
TTITLE11=Hank Williams - Your Cheatin' Heart(1953)
TTITLE12=Johnny Horton - When It's Springtime In Alaska [It's Forty Below](1959)
TTITLE13=Ray Price - City Lights(1958)
TTITLE14=Webb Pierce and Red Sovine - Why, Baby Why(1955)
TTITLE15=Don Gibson - Blue Blue Day(1957)
TTITLE16=Johnny Cash - I Walk The Line(1956)
TTITLE17=Kitty Wells and Red Foley - One By One(1954)
EXTD=
EXTT0=
EXTT1=
EXTT2=
EXTT3=
EXTT4=
EXTT5=
EXTT6=
EXTT7=
EXTT8=
EXTT9=
EXTT10=
EXTT11=
EXTT12=
EXTT13=
EXTT14=
EXTT15=
EXTT16=
EXTT17=
PLAYORDER=
